<svg width="43" height="43" viewBox="0 0 43 43" fill="none" xmlns="http://www.w3.org/2000/svg">
<g clip-path="url(#clip0_32_2)">
<path fill-rule="evenodd" clip-rule="evenodd" d="M21.8086 4.79161C33.4231 4.52977 36.8444 7.81458 37.1031 19.4778C37.2074 24.1787 36.7362 27.5412 35.3785 29.8996C32.4584 36.5049 25.6931 39.7904 22.6033 40.6107L22.4752 34.8387C10.8599 35.1005 7.43952 31.8162 7.18075 20.1524C6.92197 8.48915 10.1933 5.05347 21.8086 4.79161ZM22.1991 17.2735C20.5443 17.2362 19.233 15.8596 19.2698 14.1985C19.3067 12.5379 20.6778 11.2213 22.3326 11.2586C23.987 11.2959 25.2988 12.673 25.2619 14.3336C25.2251 15.9947 23.8535 17.3108 22.1991 17.2735ZM22.1533 19.3411C24.6351 19.3971 28.6333 20.0037 28.5779 22.4949C28.5228 24.9865 25.7777 27.9482 21.9642 27.8622C18.1503 27.7762 15.5398 24.6939 15.5951 22.2022C15.6504 19.711 19.671 19.2852 22.1533 19.3411Z" fill="black"/>
</g>
<defs>
<clipPath id="clip0_32_2">
<rect width="43" height="43" fill="white"/>
</clipPath>
</defs>
</svg>
