<svg viewBox="0 0 400 400" fill="none"
  xmlns="http://www.w3.org/2000/svg">
  <path d="M80.686 313.653H153.633C162.87 313.653 170.358 306.669 170.358 298.055C170.358 289.44 162.87 282.457 153.633 282.457H80.686C65.117 282.457 52.451 270.644 52.451 256.124V167.528C52.451 153.008 65.118 141.196 80.686 141.196H153.633C162.87 141.196 170.358 134.212 170.358 125.598C170.358 116.983 162.87 110 153.633 110H80.686C46.672 110 19 135.807 19 167.529V256.125C18.999 287.845 46.671 313.653 80.686 313.653Z" fill="#A48466"/>
  <path d="M139.503 390.207H338.689C361.782 390.207 380.502 371.487 380.502 348.394V30.4823C380.502 24.4783 375.635 19.6113 369.631 19.6113H108.561C102.557 19.6113 97.6899 24.4783 97.6899 30.4823V348.394C97.6899 371.487 116.41 390.207 139.503 390.207Z" fill="#A48466"/>
  <path d="M192.995 70.0098L150.525 116.257C148.258 118.726 147 121.955 147 125.307V207.059C147 211.678 150.744 215.422 155.363 215.422H230.627C235.246 215.422 238.99 211.678 238.99 207.059V125.307C238.99 121.955 237.732 118.725 235.465 116.257L192.995 70.0098Z" fill="#C9A381"/>
  <path d="M196 17C196 15.3431 194.657 14 193 14C191.343 14 190 15.3431 190 17V81C190 82.6569 191.343 84 193 84C194.657 84 196 82.6569 196 81V17Z" fill="black"/>
  <path fill-rule="evenodd" clip-rule="evenodd" d="M202.859 136.5C221.685 142.515 225.367 149.694 219.32 168.596C216.883 176.215 214.262 181.362 210.771 184.402C202.414 193.408 189.713 194.943 184.289 194.55L187.281 185.196C168.454 179.18 164.773 172.003 170.82 153.1C176.867 134.198 184.033 130.485 202.859 136.5ZM196.566 156.799C193.925 155.822 192.579 152.881 193.558 150.23C194.538 147.58 197.473 146.222 200.113 147.199C202.754 148.176 204.1 151.118 203.121 153.768C202.141 156.419 199.206 157.776 196.566 156.799ZM195.346 160.099C199.307 161.565 205.401 164.756 203.932 168.732C202.462 172.709 196.406 175.951 190.32 173.699C184.234 171.448 181.743 165.044 183.213 161.067C184.682 157.091 191.385 158.634 195.346 160.099Z" fill="#C19A78"/>
</svg>
