<svg viewBox="0 0 512 512" fill="none"
  xmlns="http://www.w3.org/2000/svg">
  <g clip-path="url(#clip0_32_17)">
    <mask id="mask0_32_17" style="mask-type:luminance" maskUnits="userSpaceOnUse" x="0" y="0" width="512" height="512">
      <path d="M512 0H0V512H512V0Z" fill="white"/>
    </mask>
    <g mask="url(#mask0_32_17)">
      <path d="M409.484 129.358L404.667 195.943L390.79 388.052L384.46 475.534C382.973 496.098 366.516 512.002 346.716 512.002H165.282C145.483 512.002 129.025 496.099 127.538 475.534L121.209 388.052L107.332 195.943L102.515 129.358L256 112.533L409.484 129.358Z" fill="#FCFCFC"/>
      <path d="M422.189 66.2648C418.411 66.2648 415.032 63.9152 413.717 60.3734L400.652 25.1935C398.826 20.2758 394.278 16.8928 389.044 16.5576L130.794 0.0274183C124.938 -0.34801 119.53 3.16286 117.486 8.6633L98.2818 60.3734C96.9668 63.9152 93.5869 66.2648 89.8099 66.2648C82.5881 66.2648 76.7339 72.119 76.7339 79.3408V116.046C76.7339 123.397 82.6943 129.358 90.0461 129.358H421.953C429.305 129.358 435.265 123.397 435.265 116.046V79.3408C435.265 72.119 429.411 66.2648 422.189 66.2648Z" fill="#A48466"/>
      <path d="M414.925 204.43L402.54 380.673C402.248 384.829 398.792 388.05 394.626 388.05H117.373C113.207 388.05 109.752 384.828 109.459 380.673L97.0741 204.43C96.7513 199.842 100.387 195.941 104.988 195.941H407.012C411.612 195.941 415.248 199.842 414.925 204.43Z" fill="#C9A381"/>
      <path d="M313 276.291V308.021C313 333.657 294.875 355.212 270.266 361.476L258.447 358.131L242.96 362C217.231 356.501 198 334.422 198 308.021V276.291C198 250.655 216.125 229.1 240.734 222.836L251.938 225.391L266.493 222C277.958 224.14 288.214 229.553 296.157 237.192C306.56 247.197 313 261.014 313 276.291Z" fill="#A48466"/>
      <path d="M270.265 361.162C265.565 362.364 260.613 363 255.5 363C251.197 363 246.997 362.548 242.959 361.685C243.932 360.554 271.577 327.157 246.997 298.78C222.506 270.487 230.095 240.399 240.734 222.838C245.435 221.636 250.386 221 255.5 221C259.257 221 262.927 221.339 266.493 222.004V222.018C265.432 223.248 239.452 256.871 264.002 285.22C288.494 313.499 280.905 343.601 270.265 361.162Z" fill="#9E7E60"/>
    </g>
    <path fill-rule="evenodd" clip-rule="evenodd" d="M267.213 260.414C288.994 267.374 293.254 275.68 286.258 297.55C283.438 306.365 280.405 312.32 276.367 315.838C266.698 326.258 252.002 328.034 245.726 327.58L249.188 316.756C227.405 309.796 223.146 301.491 230.143 279.62C237.139 257.75 245.43 253.454 267.213 260.414ZM259.931 283.903C256.876 282.773 255.318 279.371 256.452 276.303C257.585 273.236 260.981 271.665 264.036 272.796C267.091 273.926 268.649 277.33 267.516 280.396C266.382 283.464 262.986 285.034 259.931 283.903ZM258.52 287.722C263.103 289.417 270.154 293.109 268.454 297.71C266.754 302.311 259.746 306.063 252.705 303.457C245.663 300.852 242.781 293.443 244.482 288.841C246.182 284.241 253.937 286.026 258.52 287.722Z" fill="#C9A381"/>
  </g>
  <defs>
    <clipPath id="clip0_32_17">
      <rect width="512" height="512" fill="white"/>
    </clipPath>
  </defs>
</svg>
